<svg xmlns="http://www.w3.org/2000/svg" width="45" height="45" viewBox="0 0 45 45"><defs><style>.a{fill:#fff;}.a,.b{stroke:#fb9854;stroke-width:1.5px;}.b{fill:#fff;}</style></defs><g transform="translate(0.15 0.15)"><path class="a" d="M0,0H29V29H0Z"/><path class="b" d="M25.333,4.417H20.276a3.6,3.6,0,0,0-6.8,0H8.417A2.416,2.416,0,0,0,6,6.833V23.75a2.416,2.416,0,0,0,2.417,2.417H25.333A2.416,2.416,0,0,0,27.75,23.75V6.833A2.416,2.416,0,0,0,25.333,4.417Zm-7.25,18.125H15.667V20.125h2.417Zm0-4.833H15.667v-7.25h2.417ZM16.875,6.833a1.208,1.208,0,1,1,1.208-1.208A1.208,1.208,0,0,1,16.875,6.833Z" transform="translate(-2.375 -0.792)"/></g></svg>