<svg xmlns="http://www.w3.org/2000/svg" width="41.873" height="46.288" viewBox="0 0 41.873 46.288"><defs><style>.a{fill:#fff;stroke:#fb9854;}</style></defs><path class="a" d="M30.249,40.5a6.812,6.812,0,0,1-13.624,0H5.271a2.265,2.265,0,1,1,0-4.53H7.541V22.378A15.853,15.853,0,0,1,16.67,8.018a6.814,6.814,0,0,1,13.534,0,15.853,15.853,0,0,1,9.128,14.36v13.59H41.6a2.265,2.265,0,1,1,0,4.53Zm-9.083,0a2.271,2.271,0,0,0,4.541,0Zm0-29.219a11.332,11.332,0,0,0-9.083,11.1v13.59H34.79V22.378a11.333,11.333,0,0,0-9.085-11.1l0-2.491a2.271,2.271,0,0,0-4.541,0Z" transform="translate(-2.5 -1.506)"/></svg>