<svg xmlns="http://www.w3.org/2000/svg" width="45" height="45" viewBox="0 0 45 45"><defs><style>.a{fill:#fff;}.a,.b{stroke:#fb9854;}.b{fill:none;}</style></defs><g transform="translate(0.5 0.5)"><path class="a" d="M11.733,30.364h-.778V32.2a2.77,2.77,0,0,0,2.9,2.61H37.065a2.764,2.764,0,0,0,2.89-2.61V30.364H11.733Zm12.507,1.6h1.215a.352.352,0,1,1,0,.7H24.24a.352.352,0,1,1,0-.7Zm-8.827,0h7.219a.352.352,0,1,1,0,.7H15.413a.352.352,0,1,1,0-.7Z" transform="translate(-10.955 -12.815)"/><circle class="b" cx="0.974" cy="0.974" r="0.974" transform="translate(22.53 1.738)"/><circle class="b" cx="0.974" cy="0.974" r="0.974" transform="translate(4.786 1.738)"/><path class="a" d="M37.065,13.185H13.856a2.77,2.77,0,0,0-2.9,2.61v2.27h29v-2.27A2.764,2.764,0,0,0,37.065,13.185ZM16.785,16.87a.979.979,0,1,1,1.083-.974A1.034,1.034,0,0,1,16.785,16.87Zm17.6,0a.979.979,0,1,1,1.082-.974A1.034,1.034,0,0,1,34.387,16.87Z" transform="translate(-10.955 -13.185)"/><path class="a" d="M11.733,18.765h-.778v10.9h29v-10.9H11.733Zm18.682,1.813-5.584,7.509a.616.616,0,0,1-.417.237.68.68,0,0,1-.087.006.647.647,0,0,1-.387-.126l-3.329-2.375a.508.508,0,0,1-.079-.767.652.652,0,0,1,.854-.071L24.2,26.978l5.21-7.005a.649.649,0,0,1,.841-.151A.512.512,0,0,1,30.415,20.578Z" transform="translate(-10.955 -12.993)"/></g></svg>