<svg xmlns="http://www.w3.org/2000/svg" width="31.1" height="43.94" viewBox="0 0 31.1 43.94"><defs><style>.a{fill:#fff;stroke:#fb9854;stroke-width:0.1px;}</style></defs><g transform="translate(0.05 0.05)"><path class="a" d="M55,21.293a1,1,0,0,0-1,1v1a1,1,0,0,0,2,0v-1A1,1,0,0,0,55,21.293Z" transform="translate(-29 -6.531)"/><path class="a" d="M55,13.127a1,1,0,0,0-1,1V16.46a1,1,0,0,0,2,0V14.127A1,1,0,0,0,55,13.127Z" transform="translate(-29 -4.773)"/><path class="a" d="M54,8.293a1,1,0,0,0,2,0v-2H54a1,1,0,0,0,0,2Z" transform="translate(-29 -2.293)"/><path class="a" d="M18.255,8.293H20.3a1,1,0,0,0,0-2H18.255a1,1,0,0,0,0,2Z" transform="translate(-8.942 -2.293)"/><path class="a" d="M25.4,8.293h2.042a1,1,0,1,0,0-2H25.4a1,1,0,0,0,0,2Z" transform="translate(-12.647 -2.293)"/><path class="a" d="M32.553,8.293H34.6a1,1,0,0,0,0-2H32.553a1,1,0,0,0,0,2Z" transform="translate(-16.352 -2.293)"/><path class="a" d="M46.851,8.293h2.042a1,1,0,0,0,0-2H46.851a1,1,0,0,0,0,2Z" transform="translate(-23.762 -2.293)"/><path class="a" d="M39.7,8.293h2.042a1,1,0,0,0,0-2H39.7a1,1,0,0,0,0,2Z" transform="translate(-20.057 -2.293)"/><path class="a" d="M11.106,8.293h2.042a1,1,0,0,0,0-2H11.106a1,1,0,1,0,0,2Z" transform="translate(-5.237 -2.293)"/><path class="a" d="M5,9.293a1,1,0,0,0,1-1,1,1,0,0,0,0-2H4v2A1,1,0,0,0,5,9.293Z" transform="translate(0 -2.293)"/><path class="a" d="M5,16.5a1,1,0,0,0,1-1V13.444a1,1,0,1,0-2,0V15.5A1,1,0,0,0,5,16.5Z" transform="translate(0 -4.604)"/><path class="a" d="M5,38.142a1,1,0,0,0,1-1V35.081a1,1,0,0,0-2,0v2.061A1,1,0,0,0,5,38.142Z" transform="translate(0 -9.53)"/><path class="a" d="M5,23.717a1,1,0,0,0,1-1V20.656a1,1,0,0,0-2,0v2.061A1,1,0,0,0,5,23.717Z" transform="translate(0 -6.246)"/><path class="a" d="M5,30.929a1,1,0,0,0,1-1V27.868a1,1,0,1,0-2,0v2.061A1,1,0,0,0,5,30.929Z" transform="translate(0 -7.888)"/><path class="a" d="M7,43.293a1,1,0,0,0-1-1,1,1,0,0,0-2,0v2H6A1,1,0,0,0,7,43.293Z" transform="translate(0 -10.993)"/><path class="a" d="M27,42.293H25a1,1,0,1,0,0,2h2a1,1,0,0,0,0-2Z" transform="translate(-12.429 -11.049)"/><path class="a" d="M11,44.293h2a1,1,0,0,0,0-2H11a1,1,0,0,0,0,2Z" transform="translate(-5.179 -11.049)"/><path class="a" d="M20,42.293H18a1,1,0,0,0,0,2h2a1,1,0,0,0,0-2Z" transform="translate(-8.804 -11.049)"/><path class="a" d="M33,42.293H32a1,1,0,1,0,0,2h1a1,1,0,0,0,0-2Z" transform="translate(-15.772 -11.049)"/><path class="a" d="M31,2.293H0V38.587H19.633v7.428l3.617-5.523,3.617,5.523V38.587H31ZM25.833,42.206,23.25,38.261l-2.583,3.945V33.578l.02.015a3.656,3.656,0,0,0,5.127,0c.006-.006.013-.009.02-.015v8.628Zm.151-10.734c-.081.11-.164.213-.25.312l-.05.057q-.128.143-.261.27l-.061.057c-.087.08-.176.155-.266.223l-.078.058c-.087.063-.174.122-.263.176-.034.021-.069.039-.1.058-.083.047-.167.091-.253.129-.046.021-.092.037-.139.054-.076.03-.153.059-.23.082s-.133.032-.2.047-.121.03-.183.039a2.581,2.581,0,0,1-.795,0c-.061-.009-.122-.025-.183-.039s-.134-.028-.2-.047-.154-.053-.23-.082c-.046-.018-.093-.035-.139-.054-.085-.038-.169-.082-.253-.129-.035-.019-.069-.037-.1-.058-.089-.054-.177-.113-.263-.176L21.4,32.39c-.09-.069-.179-.144-.266-.223l-.061-.057q-.133-.127-.261-.27l-.05-.057c-.085-.1-.169-.2-.25-.312a8.041,8.041,0,0,1-1.4-4.72c0-3.48,1.854-6.312,4.133-6.312s4.133,2.832,4.133,6.312A8.034,8.034,0,0,1,25.985,31.472Zm3.982,5.537h-3.1V32.377a10.258,10.258,0,0,0,1.55-5.625c0-4.351-2.318-7.89-5.167-7.89s-5.167,3.539-5.167,7.89a10.256,10.256,0,0,0,1.55,5.625v4.632H1.033V3.871H29.967Z" transform="translate(0 -2.293)"/><path class="a" d="M12.182,15.065a3.438,3.438,0,0,0-.794,2.6,3.649,3.649,0,0,0,1.383,2.491L15,21.893v5.438a3,3,0,0,1-2-2.816,1,1,0,1,0-2,0,5.009,5.009,0,0,0,4,4.9v.878a1,1,0,0,0,2,0V29.41a4.991,4.991,0,0,0,2.819-1.668,3.444,3.444,0,0,0,.793-2.6,3.646,3.646,0,0,0-1.383-2.488L17,20.916V15.478a3,3,0,0,1,2,2.816,1,1,0,0,0,2,0,5.009,5.009,0,0,0-4-4.9v-1.1a1,1,0,0,0-2,0v1.1A4.984,4.984,0,0,0,12.182,15.065ZM18,24.228a1.642,1.642,0,0,1,.622,1.118,1.457,1.457,0,0,1-.331,1.1A2.988,2.988,0,0,1,17,27.326V23.448Zm-4-5.647a1.642,1.642,0,0,1-.622-1.12,1.461,1.461,0,0,1,.331-1.1A2.988,2.988,0,0,1,15,15.482v3.877Z" transform="translate(-6.38 -5.265)"/><path class="a" d="M25,17.293H48a1,1,0,1,0,0-2H25a1,1,0,0,0,0,2Z" transform="translate(-19.886 -5.139)"/><path class="a" d="M25,23.293H36a1,1,0,0,0,0-2H25a1,1,0,0,0,0,2Z" transform="translate(-14.809 -6.452)"/><path class="a" d="M25,29.293h8a1,1,0,0,0,0-2H25a1,1,0,0,0,0,2Z" transform="translate(-13.92 -7.765)"/><path class="a" d="M11,36.293H32a1,1,0,0,0,0-2H11a1,1,0,0,0,0,2Z" transform="translate(-7.838 -9.298)"/></g></svg>