<svg xmlns="http://www.w3.org/2000/svg" width="45" height="45" viewBox="0 0 45 45"><defs><style>.a{fill:#fff;stroke:#fb9854;}</style></defs><g transform="translate(0.526 0.5)"><path class="a" d="M7.635,20.127C3.578,20.264.287,24.679,0,30.249H3.84l0-.034a16.935,16.935,0,0,1,3.228-9.4q.275-.356.565-.682M9.167,9a17.555,17.555,0,0,1,.15-2.3,2.264,2.264,0,0,0-1.488-.618C5.824,6.073,4.2,9.218,4.2,13.1c0,3.762,1.528,6.832,3.447,7.017a9.954,9.954,0,0,1,2.849-2.25,8.9,8.9,0,0,0,.551-1.508A13.675,13.675,0,0,1,9.167,9m9.938-.084C19.105,3.99,17.043,0,14.5,0S9.895,3.99,9.895,8.912c0,4.411,1.657,8.074,3.832,8.785-4.9.524-8.806,5.979-9.158,12.8H24.431c-.351-6.823-4.257-12.278-9.158-12.8,2.175-.711,3.832-4.374,3.832-8.786m5.7,4.438c0-3.88-1.625-7.026-3.631-7.026a2.268,2.268,0,0,0-1.488.618,17.454,17.454,0,0,1,.15,2.3,13.662,13.662,0,0,1-1.879,7.36,8.938,8.938,0,0,0,.55,1.509,9.966,9.966,0,0,1,2.849,2.249c1.921-.183,3.449-3.254,3.449-7.015M29,30.5c-.287-5.57-3.578-9.985-7.635-10.121q.29.325.565.682a16.94,16.94,0,0,1,3.228,9.4l0,.034Z"/></g></svg>