<svg xmlns="http://www.w3.org/2000/svg" width="42" height="42" viewBox="0 0 80 80"><defs><style>.a{fill:#fff;}.a,.b{stroke:#fb9854;stroke-width:1.5px;}.b{fill:none;}</style></defs><path class="a" d="M81,41A40,40,0,1,0,13.245,69.741a2.441,2.441,0,0,0,.63.573,39.767,39.767,0,0,0,54.249,0,2.441,2.441,0,0,0,.63-.573A39.858,39.858,0,0,0,81,41ZM41,6A34.951,34.951,0,0,1,68.432,62.67c-2.168-6.993-8.359-12.467-16.76-14.986a18.246,18.246,0,1,0-21.344,0c-8.4,2.519-14.592,7.993-16.76,14.986A34.951,34.951,0,0,1,41,6ZM27.755,32.935A13.245,13.245,0,1,1,41,46.156,13.248,13.248,0,0,1,27.755,32.935ZM17.769,67.107C18.521,57.94,28.241,51.156,41,51.156s22.479,6.784,23.231,15.95a34.788,34.788,0,0,1-46.462,0Z"  transform="translate(-0.5 -0.5)"/></svg>