<svg xmlns="http://www.w3.org/2000/svg" width="40.288" height="40.288" viewBox="0 0 40.288 40.288"><defs><style>.a{fill:#fff;stroke:#fb9854;}</style></defs><g transform="translate(-1.5 -1.5)"><g transform="translate(2 2)"><path class="a" d="M13.929,17.715a3.94,3.94,0,0,0,3.929-3.929V5.929a3.929,3.929,0,1,0-7.858,0v7.858A3.94,3.94,0,0,0,13.929,17.715Z" transform="translate(5.715 -2)"/><path class="a" d="M35.591,5.286h0A2.683,2.683,0,0,0,33.43,4.5a3.021,3.021,0,0,0-2.947,2.947,4.119,4.119,0,0,0,.786,2.161h0A13.349,13.349,0,0,1,35.2,19.233a13.751,13.751,0,1,1-27.5,0,13.192,13.192,0,0,1,4.125-9.626h0A3.154,3.154,0,0,0,12.8,7.447,3.021,3.021,0,0,0,9.858,4.5,4.119,4.119,0,0,0,7.7,5.286h0a19.644,19.644,0,1,0,27.894,0Z" transform="translate(-2 0.411)"/></g></g></svg>