<svg xmlns="http://www.w3.org/2000/svg" width="45" height="45" viewBox="0 0 45 45"><defs><style>.a{fill:#fff;}.a,.b{stroke:#fb9854;}.b{fill:none;}</style></defs><g transform="translate(0.5 0.537)"><path class="a" d="M828,373.306v24.4a1.286,1.286,0,0,0,1.273,1.287h3.877a1.272,1.272,0,0,0,1.273-1.287v-24.4a1.286,1.286,0,0,0-1.273-1.287h-3.877A1.272,1.272,0,0,0,828,373.306Zm7.707,0v24.4a1.286,1.286,0,0,0,1.273,1.287h3.877a1.273,1.273,0,0,0,1.273-1.287v-24.4a1.287,1.287,0,0,0-1.273-1.287H836.98A1.273,1.273,0,0,0,835.707,373.306Zm7.228,1.247,6.315,23.568a1.287,1.287,0,0,0,1.563.915l3.744-1a1.273,1.273,0,0,0,.9-1.574l-6.315-23.568a1.287,1.287,0,0,0-1.563-.915l-3.744,1A1.273,1.273,0,0,0,842.935,374.553Z" transform="translate(-828 -371.934)"/></g></svg>