<svg xmlns="http://www.w3.org/2000/svg" width="45" height="45" viewBox="0 0 45 45"><defs><style>.a{fill:#fff;}.a,.b{stroke:#fb9854;}.b{fill:none;}</style></defs><g transform="translate(0.5 1.148)"><path class="a" d="M20.737,24.911H14.632v2.435h6.105V24.911Zm1.526,0h6.105v2.435H22.263V24.911ZM20.737,31H14.632V28.563h6.105V31Zm1.526,0h6.105V28.563H22.263V31Zm-1.526-9.738H14.632v2.435h6.105V21.259Zm1.526,0h6.105v2.435H22.263V21.259Zm-1.526-3.652H14.632v2.435h6.105V17.607Zm1.526,0h6.105v2.435H22.263V17.607ZM25.316,3H10.066C8.373,3,7,4.094,7,5.443v27.98a2.794,2.794,0,0,0,3.049,2.443h22.9c1.684,0,3.049-1.084,3.049-2.431v-20.7H28.377c-1.691,0-3.062-1.079-3.062-2.432V3Zm1.526,0v7.3a1.4,1.4,0,0,0,1.512,1.221H36L26.842,3ZM13.105,15.173V32.215H29.895V15.173Z" transform="translate(-7 -3)"/></g></svg>