<svg xmlns="http://www.w3.org/2000/svg" width="30.745" height="24.66" viewBox="0 0 30.745 24.66"><defs><style>.a{fill:#e8eaec;stroke:#fb9854;fill-rule:evenodd;}</style></defs><path class="a" d="M47.183,25.522C58.139,25.522,64.1,16.5,64.1,8.606V7.8A13.1,13.1,0,0,0,67,4.739a13.375,13.375,0,0,1-3.383.967,6.268,6.268,0,0,0,2.578-3.222,14.778,14.778,0,0,1-3.706,1.45A5.754,5.754,0,0,0,58.139,2a6.053,6.053,0,0,0-5.961,5.961,3.141,3.141,0,0,0,.161,1.289A16.657,16.657,0,0,1,40.094,2.967a6.17,6.17,0,0,0-.806,3.061,6.4,6.4,0,0,0,2.578,4.994,5.431,5.431,0,0,1-2.739-.806h0a5.888,5.888,0,0,0,4.833,5.8,4.967,4.967,0,0,1-1.611.161,2.742,2.742,0,0,1-1.128-.161,6.1,6.1,0,0,0,5.639,4.189,12.164,12.164,0,0,1-7.411,2.578A4.461,4.461,0,0,1,38,22.622a15.207,15.207,0,0,0,9.183,2.9" transform="translate(-37.7 -1.362)"/></svg>