<svg xmlns="http://www.w3.org/2000/svg" width="26.029" height="26.029" viewBox="0 0 26.029 26.029"><defs><style>.a{fill:#fff;stroke:#fb9854;}</style></defs><g transform="translate(0.5 0.5)"><path class="a" d="M3.754,3.754A11.361,11.361,0,0,1,12.514,0a11.361,11.361,0,0,1,8.76,3.754,11.361,11.361,0,0,1,3.754,8.76,11.361,11.361,0,0,1-3.754,8.76,11.361,11.361,0,0,1-8.76,3.754,11.361,11.361,0,0,1-8.76-3.754A12.489,12.489,0,0,1,0,12.514,11.361,11.361,0,0,1,3.754,3.754ZM14.183,22.526q1.251,0,3.129-1.877a9.11,9.11,0,0,0,1.46-4.38,3.454,3.454,0,0,0-1.043-2.5,3.672,3.672,0,0,0-2.711-1.251H12.931a6.09,6.09,0,0,1-1.877-.417,1.893,1.893,0,0,1-.626-1.46,1.084,1.084,0,0,1,.417-.834,1.581,1.581,0,0,1,.834-.417,1.424,1.424,0,0,1,1.043.626c.417.209.626.417.834.417a1.254,1.254,0,0,0,.834-.209,1.254,1.254,0,0,0,.209-.834A3.319,3.319,0,0,0,13.557,7.3,8.627,8.627,0,0,0,14.6,3.337a.449.449,0,0,0-.417-.417A6.448,6.448,0,0,0,12.514,2.5,10.433,10.433,0,0,0,7.091,4.171,5.251,5.251,0,0,0,5.214,8.343a5.34,5.34,0,0,0,1.669,3.963,5.7,5.7,0,0,0,3.963,1.669h0v.834a2.678,2.678,0,0,0,.834,2.086,3.037,3.037,0,0,0,1.877,1.251V21.9c0,.209,0,.209.209.417S13.974,22.526,14.183,22.526Z" transform="translate(0 0)"/></g></svg>